#!OML:ASF H:\Terrain\Patient Classification 1\Animal2\Wednesday\Animal2.ASF
:FULLY-SPECIFIED
:DEGREES
3078
root -1.94985 17.6668 7.57821 219.18 -182.242 -179.913
lowerback 18.493 -0.268036 1.87196
upperback -8.00414 0.171013 0.143532
thorax -20.0551 -0.1565 -0.95187
lowerneck 8.31675 10.8494 15.5637
upperneck -39.4865 12.0169 -24.5251
head -11.0503 6.75811 -13.8201
rclavicle 3.62782e-015 2.5842e-015
rhumerus -47.556 -11.1199 -68.6794
rradius 32.8968
rwrist 12.8672
rhand -5.06796 19.3407
rfingers 7.12502
rthumb 20.7281 -9.5723
lclavicle 3.62782e-015 2.5842e-015
lhumerus -54.1629 -0.227013 70.6361
lradius 51.3526
lwrist 11.8398
lhand -10.485 24.1035
lfingers 7.12502
lthumb 15.5165 53.5009
rfemur -58.6278 0.956247 9.33789
rtibia 34.6552
rfoot -16.0296 -3.18197
rtoes 17.1048
lfemur -57.6597 -0.719772 -6.20064
ltibia 30.0653
lfoot -11.5452 3.16416
ltoes -34.3217
3079
root -1.94917 17.6476 7.58046 219.047 -182.104 -179.794
lowerback 18.3427 -0.226173 1.67376
upperback -8.0886 0.145333 -0.00410452
thorax -20.0661 -0.157653 -1.00622
lowerneck 8.73756 10.8611 15.9416
upperneck -39.6214 12.1538 -24.6385
head -11.1079 6.79101 -13.9994
rclavicle -1.49089e-015 5.66536e-015
rhumerus -47.5673 -11.1081 -68.8044
rradius 32.8643
rwrist 13.1509
rhand -5.00513 20.1016
rfingers 7.12502
rthumb 20.7885 -8.80481
lclavicle -1.49089e-015 5.66536e-015
lhumerus -54.2649 -0.253616 70.1729
lradius 51.6997
lwrist 12.3527
lhand -10.0692 25.172
lfingers 7.12502
lthumb 15.917 54.5379
rfemur -58.784 1.03676 9.09465
rtibia 35.1759
rfoot -16.3273 -3.26398
rtoes 16.6804
lfemur -57.7177 -0.664206 -6.45763
ltibia 30.4568
lfoot -11.7512 3.00152
ltoes -33.5262
3080
root -1.95161 17.6313 7.58316 218.779 -182.118 -179.654
lowerback 18.3176 -0.110149 1.43094
upperback -8.12803 0.252541 0.0656516
thorax -20.0979 -0.0721391 -0.822786
lowerneck 9.00615 10.9313 15.5234
upperneck -39.7227 12.2326 -24.5545
head -11.2357 6.87382 -13.9475
rclavicle 2.48481e-015 -3.18055e-015
rhumerus -47.5712 -10.8537 -68.6045
rradius 33.0538
rwrist 13.0348
rhand -4.96356 20.3191
rfingers 7.12502
rthumb 20.8284 -8.58293
lclavicle 2.48481e-015 -3.18055e-015
lhumerus -54.3354 -0.177875 70.2228
lradius 52.0076
lwrist 12.4337
lhand -9.82972 26.1893
lfingers 7.12502
lthumb 16.1476 55.5367
rfemur -58.741 1.15034 8.86556
rtibia 35.6971
rfoot -16.6926 -3.47673
rtoes 16.386
lfemur -57.6572 -0.583771 -6.78607
ltibia 30.866
lfoot -11.9638 2.73478
ltoes -34.622
3081
root -1.94737 17.6175 7.58305 218.518 -182.371 -179.63
lowerback 18.1997 -0.111508 1.55881
upperback -8.10344 0.298085 0.147768
thorax -19.9852 -0.0593463 -0.812835
lowerneck 8.73822 11.1188 15.2739
upperneck -39.4321 12.452 -24.4714
head -11.0353 7.01196 -13.7614
rclavicle 6.4605e-015 4.17448e-015
rhumerus -47.2881 -10.7165 -68.5449
rradius 33.2045
rwrist 12.9521
rhand -4.64117 20.079
rfingers 7.12502
rthumb 21.1381 -8.78873
lclavicle 6.4605e-015 4.17448e-015
lhumerus -54.202 -0.00308024 70.149
lradius 52.1105
lwrist 12.1524
lhand -9.70865 26.6464
lfingers 7.12502
lthumb 16.2642 55.9842
rfemur -58.6509 1.03664 8.9875
rtibia 36.2296
rfoot -16.8749 -3.67627
rtoes 15.0958
lfemur -57.679 -0.557312 -6.9031
ltibia 31.2885
lfoot -12.0428 2.5717
ltoes -36.2179
3082
root -1.93885 17.6025 7.58535 218.285 -182.611 -179.73
lowerback 18.0084 -0.153145 1.90037
upperback -8.12087 0.325453 0.128832
thorax -19.8795 -0.0931573 -1.03787
lowerneck 8.55181 11.2659 15.474
upperneck -39.0952 12.7092 -24.4478
head -10.7763 7.11846 -13.672
rclavicle 3.37934e-015 1.39149e-015
rhumerus -47.0733 -10.6328 -68.7173
rradius 33.3891
rwrist 12.894
rhand -4.38191 20.1177
rfingers 7.12502
rthumb 21.3872 -8.72194
lclavicle 3.37934e-015 1.39149e-015
lhumerus -54.18 0.12089 69.8137
lradius 52.3952
lwrist 11.8117
lhand -9.40614 27.2698
lfingers 7.12502
lthumb 16.5555 56.5836
rfemur -58.6213 0.905844 9.2582
rtibia 36.7828
rfoot -17.0497 -3.77289
rtoes 14.0521
lfemur -57.7291 -0.608899 -6.77183
ltibia 31.7226
lfoot -12.117 2.48809
ltoes -36.2274
3083
root -1.93723 17.5846 7.59383 217.932 -182.804 -179.737
lowerback 17.8964 -0.163512 2.04906
upperback -8.12225 0.344303 0.106459
thorax -19.8056 -0.105761 -1.15482
lowerneck 8.7148 11.3661 15.6528
upperneck -39.1242 12.9136 -24.502
head -10.7437 7.20391 -13.7319
rclavicle -2.5842e-015 1.59028e-015
rhumerus -46.9677 -10.4859 -68.8429
rradius 33.5758
rwrist 12.8115
rhand -4.46861 20.3249
rfingers 7.12502
rthumb 21.3039 -8.52419
lclavicle -2.5842e-015 1.59028e-015
lhumerus -54.214 0.285487 69.4858
lradius 52.7212
lwrist 11.6164
lhand -9.30008 27.9
lfingers 7.12502
lthumb 16.6576 57.2052
rfemur -58.4541 0.87438 9.35031
rtibia 37.3409
rfoot -17.5066 -3.87627
rtoes 13.9196
lfemur -57.6239 -0.62314 -6.82083
ltibia 32.182
lfoot -12.332 2.25933
ltoes -36.3117
3084
root -1.93958 17.5664 7.60328 217.514 -182.884 -179.569
lowerback 17.7855 -0.0746289 1.87776
upperback -8.05126 0.423066 0.136195
thorax -19.6347 -0.0434979 -1.04872
lowerneck 8.92573 11.4654 15.4588
upperneck -39.3046 13.0354 -24.567
head -10.8377 7.29563 -13.7803
rclavicle -1.78906e-015 -8.34896e-015
rhumerus -46.7468 -10.317 -68.7615
rradius 33.8545
rwrist 12.6925
rhand -4.58289 20.0683
rfingers 7.12502
rthumb 21.1941 -8.79315
lclavicle -1.78906e-015 -8.34896e-015
lhumerus -54.0269 0.381276 69.4603
lradius 53.0133
lwrist 11.8407
lhand -9.25516 28.4191
lfingers 7.12502
lthumb 16.7008 57.7207
rfemur -58.2027 0.854637 9.20659
rtibia 37.8843
rfoot -17.9754 -3.95862
rtoes 13.9682
lfemur -57.4221 -0.474597 -7.2715
ltibia 32.6436
lfoot -12.7508 1.87034
ltoes -37.3494
3085
root -1.93846 17.5543 7.61196 217.055 -182.932 -179.525
lowerback 17.7071 0.0436486 1.77985
upperback -7.98433 0.565695 0.180832
thorax -19.49 0.0380964 -0.988319
lowerneck 9.23789 11.5181 15.1494
upperneck -39.5796 13.1207 -24.4706
head -11.0362 7.35709 -13.7836
rclavicle 9.34288e-015 -1.98785e-016
rhumerus -46.5284 -10.2515 -68.6721
rradius 34.2421
rwrist 12.5515
rhand -4.83428 19.8804
rfingers 7.12502
rthumb 20.9526 -9.0079
lclavicle 9.34288e-015 -1.98785e-016
lhumerus -53.8625 0.35705 69.4347
lradius 53.4363
lwrist 12.2557
lhand -8.61213 28.5154
lfingers 7.12502
lthumb 17.3198 57.7636
rfemur -57.9073 0.845831 9.22017
rtibia 38.3872
rfoot -18.1624 -3.88963
rtoes 14.1407
lfemur -57.1806 -0.302294 -7.57819
ltibia 33.091
lfoot -13.0913 1.49883
ltoes -37.9859
3086
root -1.93663 17.5482 7.62323 216.49 -183.022 -179.543
lowerback 17.786 0.137643 1.77724
upperback -7.93244 0.698341 0.194434
thorax -19.4703 0.0982467 -1.01649
lowerneck 9.19741 11.6627 14.9732
upperneck -39.4069 13.3502 -24.3036
head -10.939 7.47447 -13.6319
rclavicle -1.78906e-015 1.19271e-015
rhumerus -46.3643 -10.3669 -68.5668
rradius 34.5502
rwrist 12.3714
rhand -5.08339 19.9633
rfingers 7.12502
rthumb 20.7133 -8.95125
lclavicle -1.78906e-015 1.19271e-015
lhumerus -53.7985 0.318813 69.3083
lradius 53.7641
lwrist 12.5068
lhand -7.99545 28.0463
lfingers 7.12502
lthumb 17.9132 57.2413
rfemur -57.462 0.856588 9.32315
rtibia 38.8413
rfoot -18.3082 -3.85204
rtoes 13.9808
lfemur -56.819 -0.279833 -7.7024
ltibia 33.552
lfoot -13.3828 1.2197
ltoes -37.791
3087
root -1.93316 17.5399 7.63813 215.93 -183.178 -179.462
lowerback 17.9427 0.167533 1.80962
upperback -8.02281 0.751008 0.178099
thorax -19.6918 0.11215 -1.07427
lowerneck 9.29459 11.8737 15.1636
upperneck -38.9112 13.7124 -24.3924
head -10.6357 7.66122 -13.5828
rclavicle -3.77691e-015 -1.11319e-014
rhumerus -46.4508 -10.0987 -68.6057
rradius 34.8584
rwrist 11.9332
rhand -5.24326 19.8853
rfingers 7.12502
rthumb 20.5597 -9.04598
lclavicle -3.77691e-015 -1.11319e-014
lhumerus -53.9966 0.267918 69.1723
lradius 54.0585
lwrist 12.8305
lhand -8.17157 28.5569
lfingers 7.12502
lthumb 17.7437 57.7674
rfemur -56.9544 0.831728 9.32577
rtibia 39.2576
rfoot -18.5549 -3.83977
rtoes 14.3634
lfemur -56.4912 -0.392977 -7.86521
ltibia 34.0835
lfoot -13.8077 0.964519
ltoes -37.4292
3088
root -1.93076 17.5225 7.65303 215.492 -183.483 -179.447
lowerback 17.9546 0.120963 2.0082
upperback -8.20554 0.749279 0.206577
thorax -19.9409 0.0843442 -1.15326
lowerneck 9.98844 11.9581 15.5512
upperneck -38.8336 13.9572 -24.6708
head -10.606 7.78394 -13.8087
rclavicle 1.98785e-016 1.59028e-015
rhumerus -46.6771 -9.44406 -68.8288
rradius 35.3246
rwrist 11.2142
rhand -5.56899 19.7939
rfingers 7.12502
rthumb 20.2466 -9.17092
lclavicle 1.98785e-016 1.59028e-015
lhumerus -54.3072 0.264878 69.0328
lradius 54.3976
lwrist 13.033
lhand -8.64637 29.4113
lfingers 7.12502
lthumb 17.2868 58.6624
rfemur -56.5373 0.751096 9.46629
rtibia 39.7027
rfoot -18.9006 -3.83944
rtoes 15.1405
lfemur -56.3507 -0.616819 -7.78914
ltibia 34.6471
lfoot -14.2184 0.725675
ltoes -36.6236
3089
root -1.92959 17.4955 7.66618 215.13 -183.855 -179.541
lowerback 17.6793 0.111842 2.36046
upperback -8.2143 0.830518 0.246558
thorax -19.7629 0.0806533 -1.33032
lowerneck 10.4459 12.0336 15.7188
upperneck -39.0115 14.1064 -24.9398
head -10.6757 7.87563 -14.0241
rclavicle -1.45113e-014 -7.95139e-015
rhumerus -46.5405 -9.37037 -68.8591
rradius 35.8354
rwrist 10.7352
rhand -5.93933 19.7159
rfingers 7.12502
rthumb 19.8907 -9.28624
lclavicle -1.45113e-014 -7.95139e-015
lhumerus -54.0845 0.278313 68.9369
lradius 54.5801
lwrist 12.9742
lhand -8.75556 29.0183
lfingers 7.12502
lthumb 17.1817 58.2787
rfemur -56.2732 0.724178 9.70914
rtibia 40.2172
rfoot -19.3313 -4.11082
rtoes 14.8308
lfemur -56.3222 -0.682796 -7.64481
ltibia 35.2036
lfoot -14.5225 0.310793
ltoes -35.7971
